<?xml version="1.0" encoding="utf-8"?>
<!-- Generator: Adobe Illustrator 23.0.5, SVG Export Plug-In . SVG Version: 6.00 Build 0)  -->
<svg version="1.1" id="Layer_1" xmlns="http://www.w3.org/2000/svg" xmlns:xlink="http://www.w3.org/1999/xlink" x="0px" y="0px"
	 viewBox="0 0 3771 1114" style="enable-background:new 0 0 3771 1114;" xml:space="preserve">
<style type="text/css">
	.st0{fill:#D1D3D4;}
	.st1{fill:#939598;}
</style>
<g>
	<path class="st0" d="M3025.53,323.9c0-17-0.23-34,0.13-50.99c0.12-5.4-1.64-8.6-6.3-11.1c-11.63-6.25-21.25-14.97-28.6-25.9
		c-9.58-14.24-16.06-29.5-16.13-47.28c-0.07-15.83,1.22-30.98,8.47-45.49c9.58-19.17,23.81-33.13,42.96-42.52
		c14.84-7.28,30.6-8.58,46.65-7.76c23.32,1.2,43.46,10.38,58.94,27.65c23.18,25.85,30.55,55.98,20.52,89.69
		c-6.86,23.05-21.48,40.12-41.93,52.17c-4.39,2.59-5.94,5.23-5.92,10.11c0.16,33.99,0.2,67.99-0.03,101.98
		c-0.04,5.64,1.42,8.06,7.36,9.14c18.31,3.33,35.95,9.19,53.22,16.11c26.11,10.47,49.73,25.31,70.53,43.97
		c26.87,24.11,48.46,52.36,63.18,85.78c10.14,23.02,17.45,46.68,20.92,71.5c2.31,16.52,1.85,33.2,1.48,49.84
		c-0.76,34.53-10.76,66.81-25.61,97.5c-12.8,26.45-30.14,49.93-51.3,70.57c-19.21,18.73-40.77,34.33-64.79,45.79
		c-33.81,16.13-69.51,25.43-107.42,26.47c-30.09,0.82-59.1-4.2-87.26-13.43c-20.76-6.81-40.72-16.2-58.73-29.06
		c-3.5-2.5-7.45-4.46-10.61-7.31c-4.08-3.68-6.66-2.22-9.93,1.1c-14.24,14.49-28.68,28.78-43.04,43.15
		c-13.88,13.88-27.68,27.86-41.71,41.6c-3.85,3.77-5.27,6.96-3.9,12.87c10.65,45.82-20.64,90.66-67.83,98.9
		c-25.04,4.37-46.36-3.55-65.73-18.77c-26.53-20.84-37.02-59.06-25.86-89.66c7.89-21.63,21.72-38.22,42.21-48.21
		c17.11-8.34,35.65-10.66,54.4-5.65c4.85,1.3,7.76,0.47,11.22-3.1c13.83-14.28,28.03-28.19,42.08-42.24
		c15.23-15.23,30.4-30.53,45.72-45.67c3.12-3.09,2.38-5.63,0.31-8.76c-7.12-10.77-13.54-21.88-19.18-33.59
		c-9.15-19.02-15.18-38.94-19.71-59.36c-1.93-8.71-2.51-17.73-3.43-26.64c-1.97-18.91-0.53-37.68,1.57-56.56
		c3.73-33.66,15.03-64.53,31.89-93.57c7.78-13.41,7.84-13.18-4.73-22.7c-12.17-9.23-24.1-18.77-36.11-28.2
		c-16.68-13.11-33.28-26.31-50.01-39.35c-18.32-14.28-36.74-28.44-55.14-42.64c-21.77-16.81-43.64-33.49-65.31-50.42
		c-17.5-13.68-34.7-27.75-52.18-41.46c-13.32-10.44-26.94-20.49-40.27-30.91c-3.09-2.42-5.3-2.09-8.78-0.49
		c-24.69,11.41-49.97,14.72-76.4,5.65c-36.83-12.64-59.57-38.51-67.4-75.71c-4.35-20.67-3.01-42.31,7.19-62.37
		c19.42-38.17,50.53-58.12,92.95-59c21.69-0.45,41.36,7.62,59.18,20.44c14.83,10.67,25.38,24.73,32.35,40.97
		c7.67,17.86,10.96,37,6.32,56.45c-1.53,6.42-0.36,10.37,5.01,14.29c11.22,8.21,21.94,17.1,32.88,25.7
		c20.35,15.98,40.66,32,61.07,47.89c15.42,12.01,31.04,23.76,46.46,35.77c19.35,15.09,38.53,30.39,57.89,45.48
		c14.63,11.41,29.47,22.54,44.11,33.93c19.63,15.28,39.26,30.55,58.68,46.09c11.64,9.31,12.58,9.88,24.28,1.03
		c17.38-13.15,36.39-23.26,56.7-30.81c14.59-5.42,29.49-10.02,44.78-13.22c7.56-1.58,7.61-1.77,7.64-9.67
		C3025.57,357.23,3025.53,340.56,3025.53,323.9z M2930.42,634.88c-1.13,71.52,57.78,131.63,130.22,131.57
		c74.8-0.07,131.49-58.58,131.77-131.39c0.27-71.67-57.58-129.86-129.16-131.09C2988.66,502.68,2929.3,564.76,2930.42,634.88z"/>
	<path class="st1" d="M634.7,559.33c0,105.31,0.01,210.62-0.01,315.93c0,20.9,1.57,19.16-19.67,19.18
		c-30.33,0.04-60.65,0.04-90.98-0.01c-12.44-0.02-12.77-0.35-12.77-13.07c-0.03-80.98-0.01-161.96-0.02-242.95
		c0-15.5-0.01-15.52-15.04-15.52c-75.65-0.01-151.3-0.01-226.95,0c-14.54,0-14.56,0.03-14.56,15c-0.01,80.32,0,160.63-0.01,240.95
		c0,15.57-0.02,15.59-15.27,15.6c-31.66,0.01-63.32,0.03-94.98-0.01c-12.5-0.02-12.95-0.44-12.95-12.9
		c-0.03-107.3-0.03-214.59-0.03-321.89c0-107.3,0-214.59,0-321.89c0-0.67-0.03-1.33-0.03-2c0.09-10.72,0.46-11.19,11.32-11.21
		c32.99-0.05,65.99-0.04,98.98-0.01c12.91,0.01,12.95,0.06,12.95,13.58c0.01,82.98-0.01,165.96,0.02,248.95
		c0.01,19.34-1.61,17.89,17.7,17.9c74.65,0.03,149.3,0.01,223.95,0.01c14.86,0,14.89-0.02,14.89-14.72
		c0.01-83.65,0-167.3,0.01-250.94c0-14.75,0.02-14.76,14.78-14.77c31.66-0.01,63.32-0.01,94.98,0c2.66,0,5.33,0.07,7.99,0.15
		c3.68,0.11,5.39,2.22,5.53,5.72c0.12,3.33,0.16,6.66,0.16,9.99C634.7,346.71,634.7,453.02,634.7,559.33z"/>
	<path class="st1" d="M2352.17,836.92c-1.7,4.36-0.98,8.39-0.98,12.32c-0.05,62.66-0.04,125.32-0.04,187.97c0,2,0.02,4-0.01,6
		c-0.14,10.85-0.37,11.19-11.3,11.21c-30.66,0.06-61.32,0.05-91.99,0.01c-12.54-0.01-12.59-0.07-12.59-12.93
		c-0.01-120.98,0.06-241.97-0.07-362.95c-0.03-22.32,0.38-44.61,1.76-66.87c0.39-6.29,1.41-12.59,2.62-18.78
		c8.49-43.51,25.11-83.44,53.14-118.12c19.65-24.32,43.16-44.03,70.61-59.31c41.36-23.02,85.83-30.44,132.22-26.17
		c40.23,3.7,77.92,16.05,112.75,37.27c34.81,21.21,63.08,48.77,84.59,83.17c18.04,28.86,29.22,60.36,33.96,94.15
		c6.8,48.46,0.08,95.23-19.83,139.59c-19.02,42.38-47.52,77.43-86.54,103.68c-18.41,12.39-37.81,22.58-58.74,29.3
		c-43.33,13.93-87.13,17.28-131.72,4.69c-27.32-7.71-50.31-22.19-71.47-40.35C2356.82,839.34,2355.59,837.13,2352.17,836.92z
		 M2618.8,637.14c0.57-72.31-57.43-132-130.71-132.05c-75.5-0.05-132.41,58.47-132.6,131.43c-0.19,73.98,57.93,131.39,130.91,131.92
		C2561.18,768.99,2619.27,708.81,2618.8,637.14z"/>
	<path class="st1" d="M1332.83,445.74c8.82-5.61,15.87-12.62,23.74-18.51c21.57-16.13,45.65-26.31,71.98-30.21
		c34.89-5.18,69.48-3.74,103.78,6.42c45.41,13.45,83.35,38.22,114.46,73.25c30.03,33.81,49.11,73.68,57.32,118.04
		c5.15,27.8,5.95,56,2.04,84.45c-5,36.45-17.97,69.56-37.85,99.99c-21.42,32.81-49.75,58.59-83.53,78.57
		c-24.01,14.21-49.56,24.61-76.66,30.48c-29.73,6.44-59.85,8.33-90.27,4.04c-42.4-5.99-79.58-23.54-112.35-50.42
		c-23.87-19.57-43.15-43.38-57.82-70.57c-11.09-20.55-20.02-42.24-24.97-65.06c-4.72-21.74-7.99-43.82-7.97-66.28
		c0.12-132.63,0.05-265.26,0.06-397.89c0-13.44,0.05-13.48,13.01-13.5c29.99-0.03,59.98-0.01,89.98,0c2.33,0,4.66,0.08,7,0.1
		c4.03,0.04,6.2,1.94,6.23,6.07c0.03,3,0.11,6,0.11,9c0.01,63.32-0.01,126.63,0.05,189.95
		C1331.2,437.49,1330.34,441.55,1332.83,445.74z M1466.45,514.45c-70.69-1.36-131.3,58.26-131.51,131.21
		c-0.21,72.1,59.85,131.43,130.98,131.74c72.53,0.32,132.75-58.53,132.67-131.3C1598.5,573.19,1540.05,513.57,1466.45,514.45z"/>
	<path class="st1" d="M1970.53,224.39c47.21,0.28,90.15,14.36,129.82,39.73c16.99,10.86,32.18,23.58,45.33,38.78
		c6.45,7.45,6.57,7.8,0.47,15.08c-15.16,18.11-30.55,36.02-45.79,54.06c-4.92,5.83-9.62,11.85-14.45,17.76
		c-1.26,1.54-2.57,3.07-3.99,4.46c-5.35,5.24-5.91,5.43-11.45,0.57c-6.24-5.47-12.1-11.33-18.74-16.38
		c-22.54-17.16-46.72-31.23-75.25-34.74c-24.09-2.96-47.38,1.09-67.1,16.47c-11.65,9.09-18.12,21.77-21.05,36.39
		c-2.98,14.86-5.17,29.42,1.2,44.1c4.13,9.52,10.47,16.85,18.78,22.7c16.26,11.44,34.72,17.83,53.41,24.07
		c32.5,10.84,65.75,19.76,96.62,35.04c46.27,22.9,79.84,57.4,94.53,107.79c4.82,16.53,7.15,33.74,8.78,51.07
		c1.77,18.79,0.57,37.17-2.31,55.64c-3.91,25.11-13.57,47.99-27.38,69.09c-8.78,13.42-19.7,25.19-31.87,35.66
		c-17.3,14.89-36.81,26.52-57.9,34.86c-22.94,9.07-46.92,14.17-71.7,16.56c-23.49,2.27-46.49-0.37-69.61-2.7
		c-7.22-0.73-14.36-2.87-21.39-4.88c-37.43-10.7-70.53-29.35-99.36-55.4c-10.09-9.11-19.85-18.66-28.22-29.48
		c-4.9-6.33-4.85-7.57,0.78-13.37c19.24-19.82,38.56-39.57,57.78-59.42c5.09-5.26,9.79-10.9,14.95-16.09
		c5.09-5.13,5.25-4.98,10.08,0.25c9.91,10.76,19.03,22.23,30.02,32.01c21.41,19.05,45.98,30.2,74.9,30.89
		c4.33,0.1,8.66-0.04,12.99,0.02c30.99,0.43,54.93-13.36,71.05-38.82c18.64-29.44,11.12-67.06-15.5-87.87
		c-17.07-13.34-36.5-21.68-56.39-29.3c-25.46-9.75-51.64-17.61-76.67-28.51c-24.5-10.66-47.71-23.27-67.82-41.35
		c-20.66-18.58-34.83-41.29-42.21-67.6c-7.19-25.66-10.58-52.02-7.53-79c2.56-22.63,6.41-44.66,16-65.6
		c10.27-22.42,24.03-42.03,42.23-58.67c22.84-20.89,49.79-34.66,79.08-43.15C1919.89,228.11,1944.87,223.43,1970.53,224.39z"/>
	<path class="st1" d="M1140.7,550.8c0,47.98-0.08,95.96,0.06,143.93c0.03,10.47-2.12,20.58-4.56,30.55
		c-11.92,48.69-36.42,89.49-75.84,121.18c-26.2,21.06-55.54,35.44-88.11,42.69c-26.11,5.82-52.61,6.9-79.35,3
		c-32.21-4.7-61.37-16.39-88.54-34.15c-29.32-19.17-51.75-44.3-69.27-74.44c-7.95-13.68-13.9-28.15-18.54-43
		c-5.76-18.41-9.13-37.6-9.18-56.97c-0.25-93.3-0.11-186.59-0.11-279.89c0-1-0.02-2,0.01-3c0.26-8.91,0.82-9.65,9.8-9.68
		c26.32-0.1,52.65-0.04,78.97-0.04c6.33,0,12.67-0.15,18.99,0.08c7.07,0.26,7.74,1.06,8.07,8.34c0.14,2.99,0.05,6,0.05,9
		c0,87.97,0.02,175.93-0.01,263.9c-0.01,22.87,4.85,44.55,18.49,63.13c14.72,20.06,33.67,34.28,58.75,40.11
		c18.12,4.21,35.88,3.85,53.29-1.11c19.26-5.49,35.9-16.21,48.46-32.01c15.08-18.98,23.55-40.13,23.37-65.27
		c-0.63-89.29-0.25-178.59-0.25-267.89c0-2-0.01-4,0-6c0.08-12.14,0.12-12.24,12.27-12.26c30.32-0.04,60.64-0.02,90.96-0.01
		c2.33,0,4.66,0.06,6.99,0.17c3.6,0.17,5.46,2.1,5.53,5.7c0.06,3,0.13,6,0.13,8.99c0.01,48.31,0.01,96.63,0.01,144.94
		C1141,550.8,1140.85,550.8,1140.7,550.8z"/>
	<path class="st1" d="M3393.25,535.45c0-63.99,0-127.98,0-191.98c0-2.67,0.17-5.34-0.02-8c-0.39-5.75,1.97-8.73,7.52-11.15
		c29.88-13.04,59.52-26.64,89.24-40.03c4.85-2.19,9.69-4.42,14.62-6.41c4.26-1.72,6.3,0.17,6.41,4.53c0.07,2.66,0.11,5.33,0.11,8
		c0.01,34.66,0,69.33,0.01,103.99c0,2.67,0.08,5.33,0.1,8c0.04,4.15,2.26,6.01,6.27,6.04c2.67,0.02,5.33,0.09,8,0.09
		c27.33,0.01,54.66-0.04,81.99,0.03c10.79,0.03,11.13,0.36,11.15,11.35c0.07,26.33,0.06,52.66,0.01,78.99
		c-0.02,11.32-0.24,11.51-11.98,11.53c-25.33,0.05-50.66,0.02-75.99,0.02c-2.67,0-5.33-0.02-8,0.01
		c-11.05,0.13-11.38,0.45-11.55,11.06c-0.04,2.67-0.01,5.33-0.01,8c0,55.66-0.05,111.32,0.03,166.98
		c0.02,15.67,0.97,31.25,5.16,46.49c3.93,14.28,12.42,24.94,25.25,31.98c13.66,7.49,28.51,11.29,44.02,11.84
		c15.98,0.56,31.99,0.33,47.96-0.65c6.35-0.39,6.88,0.05,5.11,6.5c-5.55,20.22-11.29,40.39-16.86,60.6c-2.56,9.29-5.38,18.56-7.2,28
		c-1.48,7.66-5.97,10.18-13,11.03c-16.25,1.96-32.59,3.28-48.84,1.89c-18.52-1.58-37.05-3.3-55.01-9.17
		c-27.19-8.89-51.06-22.76-69.7-44.6c-16.8-19.69-26.8-42.72-30.84-68.29c-2.44-15.47-3.95-31.04-3.96-46.71
		C3393.22,662.1,3393.25,598.78,3393.25,535.45z"/>
</g>
</svg>
